<svg width="128" height="128" viewBox="0 0 128 128" fill="none" xmlns="http://www.w3.org/2000/svg">
<path d="M113.768 46.1533L127.267 32.6543C127.824 32.0986 128.086 31.3125 127.975 30.5342C127.864 29.7558 127.392 29.0742 126.703 28.6953L110.475 19.7842C109.265 19.1201 107.745 19.5625 107.08 20.7724C106.416 21.9834 106.857 23.5029 108.068 24.167L121.377 31.4746L109.792 43.0586L68.1249 20.1787L79.7089 8.59471L91.4189 15.0254C92.6288 15.6894 94.1493 15.248 94.8134 14.0371C95.4784 12.8271 95.036 11.3066 93.8251 10.6426L80.4706 3.30857C79.496 2.77342 78.2851 2.94627 77.4999 3.7324L63.9999 17.2324L50.4999 3.7324C49.7138 2.94627 48.5028 2.77439 47.5292 3.30857L1.29679 28.6953C0.607337 29.0742 0.135657 29.7549 0.0253055 30.5342C-0.0860225 31.3125 0.175696 32.0986 0.732337 32.6543L14.2314 46.1533L0.732337 59.6513C0.175696 60.208 -0.0860225 60.9931 0.0253055 61.7724C0.135657 62.5508 0.607337 63.2324 1.29679 63.6103L15.2675 71.2822V96.9248C15.2675 97.8379 15.7646 98.6777 16.5644 99.1172L62.7968 124.503C63.1718 124.709 63.5859 124.811 63.9999 124.811C64.414 124.811 64.828 124.709 65.203 124.503L111.435 99.1172C112.235 98.6777 112.732 97.8379 112.732 96.9248V71.2822L126.703 63.6113C127.392 63.2324 127.864 62.5508 127.975 61.7724C128.086 60.9941 127.824 60.208 127.267 59.6523L113.768 46.1533ZM63.9999 68.6865L22.9618 46.1523L63.9999 23.6172L105.038 46.1523L63.9999 68.6865ZM48.2919 8.59471L59.8749 20.1787L18.2079 43.0586L6.62394 31.4746L48.2919 8.59471ZM18.2099 49.247L59.8769 72.1269L48.2919 83.7119L6.62394 60.832L18.2099 49.247ZM107.732 95.4463L66.4999 118.087V92.5312C66.4999 91.1504 65.3808 90.0312 63.9999 90.0312C62.6191 90.0312 61.4999 91.1504 61.4999 92.5312V118.087L20.2675 95.4463V74.0283L47.5292 88.998C47.9071 89.205 48.3212 89.3066 48.7314 89.3066C49.3788 89.3066 50.0194 89.0547 50.4999 88.5742L63.9999 75.0742L77.4999 88.5742C77.9804 89.0556 78.621 89.3066 79.2685 89.3066C79.6786 89.3066 80.0927 89.205 80.4706 88.998L107.732 74.0283V95.4463ZM79.7089 83.7119L68.1239 72.1259L109.791 49.247L121.377 60.831L79.7089 83.7119Z" fill="#A0A4B1"/>
<path d="M101.2 20.0439C101.857 20.0439 102.5 19.7764 102.968 19.3105C103.433 18.8457 103.7 18.2012 103.7 17.5439C103.7 16.8857 103.433 16.2412 102.968 15.7764C102.503 15.3105 101.857 15.0439 101.2 15.0439C100.54 15.0439 99.8975 15.3105 99.4326 15.7764C98.9648 16.2412 98.7002 16.8857 98.7002 17.5439C98.7002 18.2012 98.9648 18.8457 99.4326 19.3105C99.8975 19.7764 100.543 20.0439 101.2 20.0439Z" fill="#A0A4B1"/>
<path d="M64 81.7314C63.3428 81.7314 62.6973 81.998 62.2324 82.4639C61.7676 82.9307 61.5 83.5732 61.5 84.2314C61.5 84.8906 61.7676 85.5332 62.2324 86.001C62.6973 86.4658 63.3428 86.7314 64 86.7314C64.6572 86.7314 65.3027 86.4658 65.7676 86.001C66.2324 85.5332 66.5 84.8906 66.5 84.2314C66.5 83.5732 66.2324 82.9307 65.7676 82.4639C65.3027 81.998 64.6572 81.7314 64 81.7314Z" fill="#A0A4B1"/>
</svg>
